<svg width="40" height="40" viewBox="0 0 40 40" fill="none" xmlns="http://www.w3.org/2000/svg">
<circle cx="20" cy="20" r="20" fill="#644DED"/>
<path fill-rule="evenodd" clip-rule="evenodd" d="M12.2358 20.0518C13.2198 19.8137 14.2106 20.4184 14.4488 21.4025C14.7227 22.5346 15.4036 23.5695 16.4087 24.3233C17.4158 25.0786 18.6818 25.5002 19.9999 25.5002C21.318 25.5002 22.5841 25.0786 23.5911 24.3233C24.5963 23.5695 25.2771 22.5346 25.5511 21.4025C25.7892 20.4184 26.78 19.8137 27.7641 20.0518C28.7481 20.29 29.3529 21.2807 29.1147 22.2648C28.6328 24.2567 27.4506 26.0118 25.791 27.2565C24.1334 28.4997 22.0912 29.1667 19.9999 29.1667C17.9086 29.1667 15.8664 28.4997 14.2088 27.2565C12.5492 26.0118 11.3671 24.2567 10.8851 22.2648C10.647 21.2807 11.2517 20.29 12.2358 20.0518Z" fill="white" stroke="#5946CB" stroke-width="2" stroke-linecap="round" stroke-linejoin="round"/>
<path fill-rule="evenodd" clip-rule="evenodd" d="M16.1308 16.6351C15.2252 16.8268 14.3578 16.1258 14.1935 15.0692C14.1861 15.0222 14.1769 14.9798 14.1667 14.9419C14.1564 14.9798 14.1472 15.0222 14.1399 15.0692C13.9755 16.1258 13.1082 16.8268 12.2026 16.6351C11.297 16.4433 10.6961 15.4314 10.8604 14.3748C10.9991 13.4832 11.3505 12.6154 11.9221 11.9485C12.5013 11.2727 13.2887 10.8333 14.1667 10.8333C15.0446 10.8333 15.832 11.2727 16.4112 11.9485C16.9828 12.6154 17.3342 13.4832 17.4729 14.3748C17.6373 15.4314 17.0364 16.4433 16.1308 16.6351Z" fill="white" stroke="#5946CB" stroke-width="2" stroke-linecap="round" stroke-linejoin="round"/>
<path fill-rule="evenodd" clip-rule="evenodd" d="M27.7975 16.6351C26.8919 16.8268 26.0245 16.1258 25.8602 15.0692C25.8529 15.0222 25.8437 14.9798 25.8334 14.9419C25.8231 14.9798 25.8139 15.0222 25.8066 15.0692C25.6423 16.1258 24.7749 16.8268 23.8693 16.6351C22.9637 16.4433 22.3628 15.4314 22.5272 14.3748C22.6658 13.4832 23.0172 12.6154 23.5889 11.9485C24.1681 11.2727 24.9554 10.8333 25.8334 10.8333C26.7114 10.8333 27.4987 11.2727 28.078 11.9485C28.6496 12.6154 29.001 13.4832 29.1397 14.3748C29.304 15.4314 28.7031 16.4433 27.7975 16.6351Z" fill="white" stroke="#5946CB" stroke-width="2" stroke-linecap="round" stroke-linejoin="round"/>
</svg>
