<svg width="24" height="25" viewBox="0 0 24 25" fill="none" xmlns="http://www.w3.org/2000/svg">
<path d="M13.1721 15.9724C13.3364 14.7725 14.2725 13.8364 15.4724 13.6721C16.1606 13.5778 16.9082 13.5 17.5 13.5C18.0918 13.5 18.8394 13.5778 19.5276 13.6721C20.7275 13.8364 21.6636 14.7725 21.8279 15.9724C21.9222 16.6606 22 17.4082 22 18C22 18.5918 21.9222 19.3394 21.8279 20.0276C21.6636 21.2275 20.7275 22.1636 19.5276 22.3279C18.8394 22.4222 18.0918 22.5 17.5 22.5C16.9082 22.5 16.1606 22.4222 15.4724 22.3279C14.2725 22.1636 13.3364 21.2275 13.1721 20.0276C13.0778 19.3394 13 18.5918 13 18C13 17.4082 13.0778 16.6606 13.1721 15.9724Z" fill="#644DED"/>
<path d="M2.17209 15.9724C2.33642 14.7725 3.27253 13.8364 4.47244 13.6721C5.16065 13.5778 5.90816 13.5 6.5 13.5C7.09184 13.5 7.83935 13.5778 8.52756 13.6721C9.72747 13.8364 10.6636 14.7725 10.8279 15.9724C10.9222 16.6606 11 17.4082 11 18C11 18.5918 10.9222 19.3394 10.8279 20.0276C10.6636 21.2275 9.72747 22.1636 8.52756 22.3279C7.83935 22.4222 7.09184 22.5 6.5 22.5C5.90816 22.5 5.16065 22.4222 4.47244 22.3279C3.27253 22.1636 2.33642 21.2275 2.17209 20.0276C2.07784 19.3394 2 18.5918 2 18C2 17.4082 2.07784 16.6606 2.17209 15.9724Z" fill="#644DED"/>
<path d="M13.1721 4.97244C13.3364 3.77253 14.2725 2.83642 15.4724 2.67209C16.1606 2.57784 16.9082 2.5 17.5 2.5C18.0918 2.5 18.8394 2.57784 19.5276 2.67209C20.7275 2.83642 21.6636 3.77253 21.8279 4.97244C21.9222 5.66065 22 6.40816 22 7C22 7.59184 21.9222 8.33935 21.8279 9.02756C21.6636 10.2275 20.7275 11.1636 19.5276 11.3279C18.8394 11.4222 18.0918 11.5 17.5 11.5C16.9082 11.5 16.1606 11.4222 15.4724 11.3279C14.2725 11.1636 13.3364 10.2275 13.1721 9.02756C13.0778 8.33935 13 7.59184 13 7C13 6.40816 13.0778 5.66065 13.1721 4.97244Z" fill="#644DED"/>
<path d="M2.17209 4.97244C2.33642 3.77253 3.27253 2.83642 4.47244 2.67209C5.16065 2.57784 5.90816 2.5 6.5 2.5C7.09184 2.5 7.83935 2.57784 8.52756 2.67209C9.72747 2.83642 10.6636 3.77253 10.8279 4.97244C10.9222 5.66065 11 6.40816 11 7C11 7.59184 10.9222 8.33935 10.8279 9.02756C10.6636 10.2275 9.72747 11.1636 8.52756 11.3279C7.83935 11.4222 7.09184 11.5 6.5 11.5C5.90816 11.5 5.16065 11.4222 4.47244 11.3279C3.27253 11.1636 2.33642 10.2275 2.17209 9.02756C2.07784 8.33935 2 7.59184 2 7C2 6.40816 2.07784 5.66065 2.17209 4.97244Z" fill="#644DED"/>
</svg>
