<svg width="24" height="24" viewBox="0 0 24 24" fill="none" xmlns="http://www.w3.org/2000/svg">
<rect x="0.5" y="0.5" width="23" height="23" rx="5.5" fill="#E0E6F9"/>
<rect x="0.5" y="0.5" width="23" height="23" rx="5.5" stroke="#DFE4F2"/>
<path fill-rule="evenodd" clip-rule="evenodd" d="M16.4035 8.02434C16.6378 7.79003 16.6378 7.41013 16.4035 7.17581C16.1692 6.9415 15.7893 6.9415 15.555 7.17581L11.7896 10.9412L8.02426 7.17581C7.78995 6.9415 7.41005 6.9415 7.17574 7.17581C6.94142 7.41013 6.94142 7.79003 7.17574 8.02434L10.9411 11.7897L7.17574 15.555C6.94142 15.7893 6.94142 16.1692 7.17574 16.4036C7.41005 16.6379 7.78995 16.6379 8.02426 16.4036L11.7896 12.6382L15.555 16.4036C15.7893 16.6379 16.1692 16.6379 16.4035 16.4036C16.6378 16.1692 16.6378 15.7893 16.4035 15.555L12.6381 11.7897L16.4035 8.02434Z" fill="#808192"/>
</svg>
