<svg width="32" height="32" viewBox="0 0 32 32" fill="none" xmlns="http://www.w3.org/2000/svg">
<rect width="32" height="32" rx="16" fill="#644DED"/>
<path fill-rule="evenodd" clip-rule="evenodd" d="M17.937 18.8799C17.0339 19.5819 15.8991 20 14.6666 20C11.7211 20 9.33325 17.6122 9.33325 14.6667C9.33325 11.7211 11.7211 9.33333 14.6666 9.33333C17.6121 9.33333 19.9999 11.7211 19.9999 14.6667C19.9999 15.8991 19.5819 17.034 18.8798 17.9371L22.4713 21.5286C22.7317 21.7889 22.7317 22.2111 22.4713 22.4714C22.211 22.7318 21.7889 22.7318 21.5285 22.4714L17.937 18.8799ZM18.6666 14.6667C18.6666 16.8758 16.8757 18.6667 14.6666 18.6667C12.4574 18.6667 10.6666 16.8758 10.6666 14.6667C10.6666 12.4575 12.4574 10.6667 14.6666 10.6667C16.8757 10.6667 18.6666 12.4575 18.6666 14.6667Z" fill="white"/>
</svg>
